<svg xmlns="http://www.w3.org/2000/svg" viewBox="0 0 1342.67 542.98"><defs><style>.cls-1{fill:#c00a50;}</style></defs><title>Bus</title><g id="Capa_2" data-name="Capa 2"><g id="Capa_1-2" data-name="Capa 1"><path class="cls-1" d="M1256.91,0h-81.58a10,10,0,0,0-10,10v3.65H1034.84V10a10,10,0,0,0-10-10H312a10,10,0,0,0-10,10v3.65H171.48V10a10,10,0,0,0-10-10H104.13A88.52,88.52,0,0,0,19.51,62.52a49.17,49.17,0,0,0-3.88,75.17V377.77a49.16,49.16,0,0,0,0,71.9v4.81a88.5,88.5,0,0,0,88.5,88.5h57.35a10,10,0,0,0,10-10v-3.65H302V533a10,10,0,0,0,10,10h712.87a10,10,0,0,0,10-10v-3.65h130.49V533a10,10,0,0,0,10,10h81.58a85.77,85.77,0,0,0,85.76-85.77V85.76A85.77,85.77,0,0,0,1256.91,0Zm75.76,457.21A75.76,75.76,0,0,1,1256.91,533h-81.58v-3.65a10,10,0,0,0-10-10H1034.84a10,10,0,0,0-10,10V533H312v-3.65a10,10,0,0,0-10-10H171.48a10,10,0,0,0-10,10V533H104.13a78.51,78.51,0,0,1-78.5-78.5v-366a78.26,78.26,0,0,1,3.44-23A79.15,79.15,0,0,1,57,25.68,77.84,77.84,0,0,1,104.13,10h57.35v3.65a10,10,0,0,0,10,10H302a10,10,0,0,0,10-10V10h712.87v3.65a10,10,0,0,0,10,10h130.49a10,10,0,0,0,10-10V10h81.58a75.85,75.85,0,0,1,75.76,75.76Z"/></g></g></svg>